<?xml version="1.0" encoding="UTF-8"?>
<svg version="1.1" xmlns="http://www.w3.org/2000/svg" width="283" height="259">
<path d="M0 0 C1.08788818 0.00902344 2.17577637 0.01804687 3.29663086 0.02734375 C23.88765456 0.46541827 43.39307133 7.69210656 58.5234375 22.0625 C62.28593696 26.23822194 63.57731909 30.32087184 64.1875 35.8125 C63.42908504 43.14384462 60.1127041 47.71773406 54.49609375 52.30859375 C49.61886723 55.57893822 43.41982617 54.9440142 37.8125 54.4375 C33.27134668 53.09961813 30.09608559 50.77003819 26.75 47.5 C19.30457007 40.83472901 7.63673586 38.56415826 -2.06640625 39.02734375 C-12.99713164 40.46379702 -22.83101971 45.15672062 -30.06640625 53.640625 C-37.95687457 64.95227383 -40.99920042 76.47517713 -38.7265625 90.2265625 C-35.7405985 101.2921938 -29.75968045 109.20478702 -20.1875 115.4375 C-9.64043729 121.11415622 2.52583043 122.392353 14.20703125 119.63671875 C21.16898707 116.92463154 27.10548359 112.71512171 33.09765625 108.328125 C38.0810903 104.85764719 42.92515995 104.81732026 48.8125 105.4375 C54.44191688 107.14190822 58.82047077 110.31296993 61.8125 115.4375 C66.02565865 124.28345461 68.09752132 134.29001908 70.640625 143.71875 C70.8665332 144.55470703 71.09244141 145.39066406 71.32519531 146.25195312 C71.8125 148.4375 71.8125 148.4375 71.8125 151.4375 C68.17524358 150.81714208 65.03058643 149.77848392 61.625 148.375 C56.2354858 146.41714699 51.50837506 145.22735402 45.8125 146.4375 C43.2848294 147.71835665 40.99955782 149.20843088 38.640625 150.77734375 C22.66368128 160.15607453 0.536134 162.24840835 -17.3125 157.9375 C-26.07678424 155.60263904 -34.18357013 151.63500792 -42.1875 147.4375 C-43.04601562 146.99277344 -43.90453125 146.54804688 -44.7890625 146.08984375 C-49.99555506 143.12475629 -53.43213305 139.03782451 -57.1875 134.4375 C-58.37112747 133.10072775 -59.55861217 131.76736054 -60.75 130.4375 C-63.10241338 127.73382127 -65.40515943 125.00138242 -67.625 122.1875 C-68.11871094 121.56359375 -68.61242187 120.9396875 -69.12109375 120.296875 C-70.1875 118.4375 -70.1875 118.4375 -70.1875 114.4375 C-70.8475 114.1075 -71.5075 113.7775 -72.1875 113.4375 C-73.13172501 110.66953822 -73.97072704 107.93916973 -74.75 105.125 C-74.97107422 104.35220703 -75.19214844 103.57941406 -75.41992188 102.78320312 C-76.02109714 100.67091663 -76.61394578 98.55744961 -77.1875 96.4375 C-77.37070801 95.79820557 -77.55391602 95.15891113 -77.74267578 94.50024414 C-81.32559073 77.88550845 -78.01587508 58.33760424 -70.1875 43.4375 C-69.83042969 42.715625 -69.47335938 41.99375 -69.10546875 41.25 C-65.87784373 35.03223408 -61.74963479 29.73346655 -57.1875 24.4375 C-56.66671875 23.82003906 -56.1459375 23.20257812 -55.609375 22.56640625 C-41.77942706 7.4442662 -20.05460274 -0.20169633 0 0 Z " fill="#14217F" transform="translate(142.1875,8.5625)"/>
<path d="M0 0 C1.08788818 0.00902344 2.17577637 0.01804687 3.29663086 0.02734375 C23.88765456 0.46541827 43.39307133 7.69210656 58.5234375 22.0625 C62.28593696 26.23822194 63.57731909 30.32087184 64.1875 35.8125 C63.42908504 43.14384462 60.1127041 47.71773406 54.49609375 52.30859375 C49.61886723 55.57893822 43.41982617 54.9440142 37.8125 54.4375 C33.27134668 53.09961813 30.09608559 50.77003819 26.75 47.5 C20.70376469 41.97281505 10.70783139 39.8441395 2.8125 38.4375 C2.8125 37.7775 2.8125 37.1175 2.8125 36.4375 C-14.91810571 32.78019684 -34.23118406 35.04143852 -50.1875 43.4375 C-52.72936339 45.18681609 -55.0869964 47.00054373 -57.41796875 49.01953125 C-59.1875 50.4375 -59.1875 50.4375 -62.1875 51.4375 C-62.5175 52.4275 -62.8475 53.4175 -63.1875 54.4375 C-64.33798828 55.55705078 -64.33798828 55.55705078 -65.51171875 56.69921875 C-68.43031116 59.68598266 -70.09260371 62.5474072 -72 66.25 C-72.60457031 67.41144531 -73.20914063 68.57289062 -73.83203125 69.76953125 C-74.50298828 71.09017578 -74.50298828 71.09017578 -75.1875 72.4375 C-77.70987443 68.65393836 -77.52473795 66.94463961 -77.1875 62.4375 C-76.50620011 59.42784018 -75.57089376 56.53964699 -74.5625 53.625 C-74.29034668 52.82964844 -74.01819336 52.03429688 -73.73779297 51.21484375 C-70.06979528 40.86411368 -64.31682501 32.73395317 -57.1875 24.4375 C-56.66800781 23.82132813 -56.14851563 23.20515625 -55.61328125 22.5703125 C-41.77946701 7.44720071 -20.05934071 -0.20174398 0 0 Z " fill="#21BFC1" transform="translate(142.1875,8.5625)"/>
<path d="M0 0 C12.40802257 7.21512781 14.07438735 23.8976259 17.515625 36.65625 C17.7415332 37.49220703 17.96744141 38.32816406 18.20019531 39.18945312 C18.6875 41.375 18.6875 41.375 18.6875 44.375 C15.05024358 43.75464208 11.90558643 42.71598392 8.5 41.3125 C3.1104858 39.35464699 -1.61662494 38.16485402 -7.3125 39.375 C-9.83772344 40.65461659 -12.12050208 42.14270801 -14.4765625 43.7109375 C-22.48321684 48.40905699 -32.09635789 50.88993989 -41.3125 51.375 C-41.3125 50.385 -41.3125 49.395 -41.3125 48.375 C-43.6225 48.375 -45.9325 48.375 -48.3125 48.375 C-47.6525 48.045 -46.9925 47.715 -46.3125 47.375 C-46.3125 46.385 -46.3125 45.395 -46.3125 44.375 C-48.9525 43.715 -51.5925 43.055 -54.3125 42.375 C-54.3125 41.715 -54.3125 41.055 -54.3125 40.375 C-55.9625 39.715 -57.6125 39.055 -59.3125 38.375 C-59.9725 39.365 -60.6325 40.355 -61.3125 41.375 C-61.3125 40.715 -61.3125 40.055 -61.3125 39.375 C-62.9625 39.045 -64.6125 38.715 -66.3125 38.375 C-66.6425 37.385 -66.9725 36.395 -67.3125 35.375 C-69.81697516 34.15630071 -69.81697516 34.15630071 -72.3125 33.375 C-72.3125 32.715 -72.3125 32.055 -72.3125 31.375 C-73.3025 31.045 -74.2925 30.715 -75.3125 30.375 C-78.08753596 28.45382126 -78.34117843 27.25146214 -79.125 23.875 C-79.3125 20.375 -79.3125 20.375 -77.3125 17.375 C-77.3125 16.715 -77.3125 16.055 -77.3125 15.375 C-77.9725 15.375 -78.6325 15.375 -79.3125 15.375 C-79.3125 13.725 -79.3125 12.075 -79.3125 10.375 C-80.3025 10.045 -81.2925 9.715 -82.3125 9.375 C-81.9825 8.055 -81.6525 6.735 -81.3125 5.375 C-83.7875 4.385 -83.7875 4.385 -86.3125 3.375 C-85.6525 2.715 -84.9925 2.055 -84.3125 1.375 C-83.40371094 1.93767578 -83.40371094 1.93767578 -82.4765625 2.51171875 C-68.37843955 11.12241846 -55.67053765 16.52620566 -38.91796875 12.57421875 C-31.95601293 9.86213154 -26.01951641 5.65262171 -20.02734375 1.265625 C-14.11557948 -2.85134465 -6.50966739 -2.98256624 0 0 Z " fill="#1F98D8" transform="translate(195.3125,115.625)"/>
<path d="M0 0 C3.63 0 7.26 0 11 0 C11 2.64 11 5.28 11 8 C12.89685547 7.87431641 12.89685547 7.87431641 14.83203125 7.74609375 C16.4921684 7.64292138 18.15232575 7.54007369 19.8125 7.4375 C20.64587891 7.38142578 21.47925781 7.32535156 22.33789062 7.26757812 C23.14033203 7.21923828 23.94277344 7.17089844 24.76953125 7.12109375 C25.50792236 7.0739624 26.24631348 7.02683105 27.00708008 6.97827148 C29 7 29 7 32 8 C33.15492976 10.62724481 34.14189869 13.1673491 35.0625 15.875 C35.57076427 17.33193889 36.08236627 18.78771862 36.59765625 20.2421875 C36.81945557 20.8904248 37.04125488 21.53866211 37.26977539 22.20654297 C38.04758734 24.28802737 38.04758734 24.28802737 40 27 C42.64 20.4 45.28 13.8 48 7 C53.445 7.495 53.445 7.495 59 8 C58.41079068 12.49546449 57.23997037 16.23377833 55.453125 20.39453125 C54.9375 21.59787109 54.421875 22.80121094 53.890625 24.04101562 C53.48553711 24.97167847 53.48553711 24.97167847 53.07226562 25.92114258 C52.25828289 27.79344787 51.45651309 29.67062445 50.65625 31.54882812 C42.23960365 51.05919769 42.23960365 51.05919769 36 55 C31.17968844 56.60677052 27.36916439 56.53245282 22.625 54.6875 C20 53 20 53 19 50 C20.9375 46.8125 20.9375 46.8125 23 44 C25.64 44.33 28.28 44.66 31 45 C32.24261796 40.73959558 31.73954934 38.5119019 29.9375 34.5 C29.24914062 32.94539063 29.24914062 32.94539063 28.546875 31.359375 C28.03640625 30.25078125 27.5259375 29.1421875 27 28 C26.44250491 26.77613431 25.88521621 25.55217459 25.328125 24.328125 C23.89933834 21.21200932 22.45651614 18.10323027 21 15 C20.01 16.485 20.01 16.485 19 18 C15.375 18.6875 15.375 18.6875 12 19 C12 23.29 12 27.58 12 32 C13.093125 32.04125 14.18625 32.0825 15.3125 32.125 C19 33 19 33 20.9375 35.875 C22 39 22 39 22 42 C16.20465325 44.52617679 10.82021088 44.34494316 4.9140625 42.265625 C2.19929758 40.47055595 1.31199893 39.00055343 0 36 C-0.48262933 32.89945025 -0.60093122 29.82128973 -0.6875 26.6875 C-0.72166016 25.85154297 -0.75582031 25.01558594 -0.79101562 24.15429688 C-0.87305461 22.10332228 -0.9382151 20.05168462 -1 18 C-2.32 17.67 -3.64 17.34 -5 17 C-5 14.36 -5 11.72 -5 9 C-3.35 8.67 -1.7 8.34 0 8 C0 5.36 0 2.72 0 0 Z " fill="#48525D" transform="translate(186,200)"/>
<path d="M0 0 C3.63 0 7.26 0 11 0 C11 4.62 11 9.24 11 14 C12.98 13.34 14.96 12.68 17 12 C22.26845596 11.25428105 26.612526 11.80910982 31 15 C34.85671844 20.55833605 35.66005545 26.0015472 35.8125 32.625 C35.85052734 33.44484375 35.88855469 34.2646875 35.92773438 35.109375 C36.09418885 39.51510612 36.10661897 43.69572742 35 48 C31.78548731 49.60725635 28.56387464 49.05748185 25 49 C22.81443402 44.62886803 22.79396374 40.65084291 22.9375 35.875 C23.12963545 30.36583626 23.12963545 30.36583626 22 25 C19.69 24.67 17.38 24.34 15 24 C12.43925687 26.96915036 11.61356564 28.85675216 11.48828125 32.765625 C11.45283203 33.65507812 11.41738281 34.54453125 11.38085938 35.4609375 C11.34702148 36.84152344 11.34702148 36.84152344 11.3125 38.25 C11.27833984 39.18585938 11.24417969 40.12171875 11.20898438 41.0859375 C11.12668898 43.39020846 11.06166287 45.69508463 11 48 C7.37 48 3.74 48 0 48 C-0.92730698 31.90765726 -0.92730698 16.09234274 0 0 Z " fill="#47525D" transform="translate(81,195)"/>
<path d="M0 0 C1.2684375 1.0209375 1.2684375 1.0209375 2.5625 2.0625 C2.5625 6.0625 2.5625 6.0625 0.375 8.375 C-2.4375 10.0625 -2.4375 10.0625 -4.9375 9.9375 C-7.4375 9.0625 -7.4375 9.0625 -9.6875 7.9375 C-13.76380016 6.6404954 -17.33224973 6.91719467 -21.4375 8.0625 C-24.71513617 10.45244304 -26.09550456 12.03651367 -27.375 15.875 C-27.45183023 19.79334179 -27.12375272 23.48398178 -25.4375 27.0625 C-23.23092779 29.23443991 -21.89217105 29.99338458 -18.81640625 30.4609375 C-13.28954908 30.41494424 -10.14949619 30.11143871 -5.4375 27.0625 C-2.16124917 27.76455375 -0.79907852 28.63858036 1.375 31.1875 C1.9628125 32.115625 1.9628125 32.115625 2.5625 33.0625 C1.05614535 37.28029303 -1.67762422 38.8372674 -5.4375 41.0625 C-12.5640627 43.4380209 -21.09006531 43.16833796 -27.9375 40.0625 C-33.71191483 36.70992034 -36.9252664 32.1557051 -39.8125 26.25 C-41.20892985 19.12820777 -41.51557505 13.20193012 -37.9375 6.6875 C-28.74685691 -6.96840837 -13.31755025 -7.50625559 0 0 Z " fill="#45505C" transform="translate(74.4375,201.9375)"/>
<path d="M0 0 C3.8140023 3.08504623 6.03140538 5.63432473 6.61572266 10.66259766 C6.71900907 14.00592275 6.6868131 17.32034438 6.6015625 20.6640625 C6.58706055 22.39946289 6.58706055 22.39946289 6.57226562 24.16992188 C6.45728702 32.68333798 6.45728702 32.68333798 5.2890625 33.8515625 C3.3104719 33.89931129 1.33038433 33.88850666 -0.6484375 33.8515625 C-4.9032858 33.80024306 -8.93739567 33.94207029 -13.1484375 34.5390625 C-17.49905101 35.04051308 -20.01368104 34.37651813 -23.7109375 31.8515625 C-25.70379123 30.21235668 -26.59866624 29.34274928 -27.1796875 26.80078125 C-27.24270391 22.23996867 -27.01199264 18.50088926 -23.6796875 15.00390625 C-18.80916938 12.15310695 -12.2747522 11.8515625 -6.7109375 11.8515625 C-7.0409375 11.1915625 -7.3709375 10.5315625 -7.7109375 9.8515625 C-9.29417438 9.8243695 -10.87754812 9.80507944 -12.4609375 9.7890625 C-13.34265625 9.77746094 -14.224375 9.76585937 -15.1328125 9.75390625 C-17.4928213 9.84330052 -19.45592274 10.18243429 -21.7109375 10.8515625 C-24.00473499 7.41086626 -24.7109375 6.12865949 -24.7109375 1.8515625 C-17.67923254 -2.26455748 -7.55500781 -3.20053645 0 0 Z M-13.7109375 20.8515625 C-14.0409375 22.1715625 -14.3709375 23.4915625 -14.7109375 24.8515625 C-11.85315717 25.53649623 -11.85315717 25.53649623 -8.7109375 25.8515625 C-7.7209375 25.1915625 -6.7309375 24.5315625 -5.7109375 23.8515625 C-6.0409375 22.8615625 -6.3709375 21.8715625 -6.7109375 20.8515625 C-9.0209375 20.8515625 -11.3309375 20.8515625 -13.7109375 20.8515625 Z " fill="#454E58" transform="translate(146.7109375,209.1484375)"/>
<path d="M0 0 C1.81242052 -0.02687279 3.62495233 -0.04633715 5.4375 -0.0625 C6.44683594 -0.07410156 7.45617187 -0.08570313 8.49609375 -0.09765625 C11 0 11 0 12 1 C12.04092937 3.33297433 12.04241723 5.66705225 12 8 C14.31 8 16.62 8 19 8 C19 10.97 19 13.94 19 17 C16.69 17.33 14.38 17.66 12 18 C12.495 24.93 12.495 24.93 13 32 C14.11375 32.2475 15.2275 32.495 16.375 32.75 C20 34 20 34 21.4375 35.875 C22 38 22 38 22 42 C17.6383311 44.47687533 13.91479707 44.5290233 9 44 C4.78615302 42.67341854 3.43809722 41.82026714 1.34765625 37.90625 C-0.31958296 33.76443729 -0.34488108 29.97320562 -0.1875 25.5625 C-0.17396484 24.83095703 -0.16042969 24.09941406 -0.14648438 23.34570312 C-0.11153874 21.56347578 -0.05774805 19.78163427 0 18 C-1.65 17.67 -3.3 17.34 -5 17 C-5 14.03 -5 11.06 -5 8 C-3.68 7.67 -2.36 7.34 -1 7 C-0.67 4.69 -0.34 2.38 0 0 Z " fill="#45505B" transform="translate(160,200)"/>
<path d="M0 0 C1.35653687 -0.01426025 1.35653687 -0.01426025 2.74047852 -0.02880859 C7.60050181 -0.00441588 11.56502918 0.35377451 16.125 2.25 C16.125 2.91 16.125 3.57 16.125 4.25 C15.36316406 4.34796875 14.60132813 4.4459375 13.81640625 4.546875 C7.73024379 5.42826682 2.49004278 6.62106827 -3.03515625 9.34765625 C-4.875 10.25 -4.875 10.25 -7.875 11.25 C-7.875 10.59 -7.875 9.93 -7.875 9.25 C-9.60485242 9.36512153 -11.33388751 9.49255677 -13.0625 9.625 C-14.02542969 9.69460937 -14.98835938 9.76421875 -15.98046875 9.8359375 C-18.90908187 10.25487541 -21.17021407 11.08314194 -23.875 12.25 C-25.07125 12.559375 -26.2675 12.86875 -27.5 13.1875 C-30.8674888 14.24763536 -31.57401674 14.84897399 -33.875 17.25 C-35.174375 17.5903125 -35.174375 17.5903125 -36.5 17.9375 C-46.02223955 21.64059316 -55.1230475 32.28743625 -59.328125 41.3984375 C-60.27735236 43.9987857 -61.13724908 46.58274667 -61.875 49.25 C-62.205 49.25 -62.535 49.25 -62.875 49.25 C-62.875 46.28 -62.875 43.31 -62.875 40.25 C-62.215 40.25 -61.555 40.25 -60.875 40.25 C-60.99875 39.46625 -61.1225 38.6825 -61.25 37.875 C-60.32066061 28.89138588 -52.93558893 20.7766277 -46.3203125 15.03125 C-32.07269405 3.69362259 -17.80463071 0.15589942 0 0 Z " fill="#08155A" transform="translate(128.875,42.75)"/>
<path d="M0 0 C18.98743493 -0.75613679 34.55876376 5.7530152 49 18 C53.70745358 22.47100614 55.66042871 26.94385835 56.375 33.375 C55.61658504 40.70634462 52.3002041 45.28023406 46.68359375 49.87109375 C41.80636723 53.14143822 35.60732617 52.5065142 30 52 C24.60342373 50.41009958 20.59243404 47.06891079 16.54296875 43.26953125 C14.90893804 41.77044336 14.90893804 41.77044336 12 41 C11.67 40.34 11.34 39.68 11 39 C10.01 38.34 9.02 37.68 8 37 C9.98 37 11.96 37 14 37 C14.33 37.99 14.66 38.98 15 40 C18.0745356 39.2236068 18.0745356 39.2236068 20 37 C20 37.66 20 38.32 20 39 C20.66 39 21.32 39 22 39 C22.33 38.34 22.66 37.68 23 37 C23.99 37.66 24.98 38.32 26 39 C26 39.99 26 40.98 26 42 C25.34 42 24.68 42 24 42 C24 42.99 24 43.98 24 45 C24.66 45 25.32 45 26 45 C26 45.66 26 46.32 26 47 C26.99 47 27.98 47 29 47 C29 46.34 29 45.68 29 45 C32.56327058 44.91901658 35.56050142 45.14012536 39 46 C39.66 45.67 40.32 45.34 41 45 C41 45.66 41 46.32 41 47 C43.96175123 46.38722388 45.38058783 45.74627478 48 44 C48 42.68 48 41.36 48 40 C48.62056011 38.31562256 49.29289322 36.64991582 50 35 C51.85463734 30.97450052 51.85463734 30.97450052 51.125 26.875 C50.75375 26.25625 50.3825 25.6375 50 25 C50 23.68 50 22.36 50 21 C47.69 21 45.38 21 43 21 C43 20.34 43 19.68 43 19 C42.01 19 41.02 19 40 19 C40 17 40 17 42 15 C36.11577958 12.44941324 36.11577958 12.44941324 29.9375 12.8125 C29.298125 13.204375 28.65875 13.59625 28 14 C26 11 26 11 26 7 C22.13210957 5.17981627 19.24203146 4.90974401 15 5 C12.625 4.5 12.625 4.5 11 4 C11 3.34 11 2.68 11 2 C10.113125 2.4125 9.22625 2.825 8.3125 3.25 C6.6728125 3.62125 6.6728125 3.62125 5 4 C2.125 2.125 2.125 2.125 0 0 Z " fill="#2CE1DD" transform="translate(150,11)"/>
<path d="M0 0 C4.99615393 4.55531682 8.96999699 9.93999399 12 16 C11.01 16 10.02 16 9 16 C10.32 16.66 11.64 17.32 13 18 C12.67 19.32 12.34 20.64 12 22 C12.66 22.33 13.32 22.66 14 23 C14 24.65 14 26.3 14 28 C14.66 28 15.32 28 16 28 C16.33 28.99 16.66 29.98 17 31 C16.34 31.66 15.68 32.32 15 33 C14.83322718 36.58343976 14.83322718 36.58343976 15 40 C16.485 40.495 16.485 40.495 18 41 C19.6875 42.4375 19.6875 42.4375 21 44 C21 44.66 21 45.32 21 46 C21.78375 46.268125 22.5675 46.53625 23.375 46.8125 C26 48 26 48 28 51 C29.9519572 51.9049261 29.9519572 51.9049261 32 52 C32.66 51.34 33.32 50.68 34 50 C36.5 51.375 36.5 51.375 39 53 C39 53.66 39 54.32 39 55 C39.94875 55.144375 40.8975 55.28875 41.875 55.4375 C45 56 45 56 47 57 C47 57.99 47 58.98 47 60 C48.65 60.33 50.3 60.66 52 61 C52 61.99 52 62.98 52 64 C50.02 64.495 50.02 64.495 48 65 C48 64.01 48 63.02 48 62 C46.14375 61.814375 46.14375 61.814375 44.25 61.625 C41.1237803 61.24253695 38.71120763 60.69450477 36 59 C36 58.34 36 57.68 36 57 C35.443125 56.87625 34.88625 56.7525 34.3125 56.625 C27.36585494 54.74752836 23.71985763 51.27756509 19 46 C18.071875 45.071875 17.14375 44.14375 16.1875 43.1875 C15.465625 42.465625 14.74375 41.74375 14 41 C13.401875 40.46375 12.80375 39.9275 12.1875 39.375 C11 38 11 38 11 35 C10.01 34.67 9.02 34.34 8 34 C2.23784055 24.05127158 -0.66202525 13.1503411 -3 2 C-2.01 1.34 -1.02 0.68 0 0 Z " fill="#1159A6" transform="translate(102,103)"/>
<path d="M0 0 C-0.99 1.98 -1.98 3.96 -3 6 C-5.31 6 -7.62 6 -10 6 C-10.33 6.66 -10.66 7.32 -11 8 C-12.2065625 8.6496875 -12.2065625 8.6496875 -13.4375 9.3125 C-16.41434947 11.27286429 -17.00305041 12.64662411 -18 16 C-19.65 16 -21.3 16 -23 16 C-23.226875 16.7425 -23.45375 17.485 -23.6875 18.25 C-25.25923147 21.54315164 -27.14893889 22.77478157 -30 25 C-33.64526542 29.39945826 -33.31994393 33.56095318 -33 39 C-33.99 39 -34.98 39 -36 39 C-36.66 39.66 -37.32 40.32 -38 41 C-38 41.99 -38 42.98 -38 44 C-37.13375 43.566875 -37.13375 43.566875 -36.25 43.125 C-34.84960323 42.42480162 -33.43441946 41.75255852 -32 41.125 C-28.42411534 39.11356488 -26.25371536 36.38057304 -24 33 C-22.00577205 32.63371323 -20.00546689 32.29868656 -18 32 C-17.67 31.34 -17.34 30.68 -17 30 C-15.22265625 29.296875 -15.22265625 29.296875 -13.0625 28.75 C-12.35222656 28.55921875 -11.64195313 28.3684375 -10.91015625 28.171875 C-10.27980469 28.11515625 -9.64945313 28.0584375 -9 28 C-8.34 28.66 -7.68 29.32 -7 30 C-7.90621094 30.35191406 -8.81242187 30.70382813 -9.74609375 31.06640625 C-16.69056776 33.8809391 -22.50256418 36.62076783 -28.23046875 41.58203125 C-30 43 -30 43 -33 44 C-33.33 44.99 -33.66 45.98 -34 47 C-35.15048828 48.11955078 -35.15048828 48.11955078 -36.32421875 49.26171875 C-39.24281116 52.24848266 -40.90510371 55.1099072 -42.8125 58.8125 C-43.41707031 59.97394531 -44.02164063 61.13539062 -44.64453125 62.33203125 C-45.31548828 63.65267578 -45.31548828 63.65267578 -46 65 C-48.52237443 61.21643836 -48.33723795 59.50713961 -48 55 C-47.31870011 51.99034018 -46.38339376 49.10214699 -45.375 46.1875 C-45.10284668 45.39214844 -44.83069336 44.59679688 -44.55029297 43.77734375 C-40.88229528 33.42661368 -35.12932501 25.29645317 -28 17 C-27.48050781 16.38382813 -26.96101563 15.76765625 -26.42578125 15.1328125 C-21.33462539 9.56716605 -7.55189232 -2.51729744 0 0 Z " fill="#16838B" transform="translate(113,16)"/>
<path d="M0 0 C6.62277667 3.81877848 9.55960206 9.28200688 11.6875 16.375 C10.6875 18.375 10.6875 18.375 8.8125 19.0625 C6.6875 19.375 6.6875 19.375 3.6875 18.375 C3.3575 19.035 3.0275 19.695 2.6875 20.375 C2.6875 16.745 2.6875 13.115 2.6875 9.375 C3.3475 9.375 4.0075 9.375 4.6875 9.375 C4.6875 8.385 4.6875 7.395 4.6875 6.375 C4.0275 6.375 3.3675 6.375 2.6875 6.375 C2.6875 5.715 2.6875 5.055 2.6875 4.375 C1.615 4.395625 0.5425 4.41625 -0.5625 4.4375 C-4.3125 4.375 -4.3125 4.375 -6.5 3.8125 C-8.74179781 3.27137639 -10.12927624 3.72003287 -12.3125 4.375 C-14.64583333 4.375 -16.97916667 4.375 -19.3125 4.375 C-19.3125 5.035 -19.3125 5.695 -19.3125 6.375 C-18.6525 6.375 -17.9925 6.375 -17.3125 6.375 C-17.6425 8.025 -17.9725 9.675 -18.3125 11.375 C-19.3025 11.705 -20.2925 12.035 -21.3125 12.375 C-22.52596851 8.73459446 -22.52596851 7.01540554 -21.3125 3.375 C-20.6525 3.375 -19.9925 3.375 -19.3125 3.375 C-19.3125 2.385 -19.3125 1.395 -19.3125 0.375 C-13.30923431 -2.8267417 -6.14296989 -2.79225904 0 0 Z " fill="#22B5E9" transform="translate(195.3125,115.625)"/>
<path d="M0 0 C1.42942899 2.69906254 2.46966627 5.28245025 3.2890625 8.22265625 C3.61777344 9.40118164 3.61777344 9.40118164 3.953125 10.60351562 C4.17484375 11.41498047 4.3965625 12.22644531 4.625 13.0625 C4.96917969 14.28549805 4.96917969 14.28549805 5.3203125 15.53320312 C7 21.61707124 7 21.61707124 7 25 C3.36274358 24.37964208 0.21808643 23.34098392 -3.1875 21.9375 C-8.56300844 19.98473487 -13.32034609 18.76373464 -19 20 C-21.68786183 21.39639669 -24.14838135 22.9736737 -26.66015625 24.6640625 C-30.02390957 26.58460279 -32.22210001 26.49276956 -36 26 C-33 24 -33 24 -30 23 C-28.77479736 19.99152582 -28.77479736 19.99152582 -28 17 C-27.43079834 17.00523682 -26.86159668 17.01047363 -26.27514648 17.01586914 C-23.66260917 17.03682887 -21.05008963 17.04972004 -18.4375 17.0625 C-17.54224609 17.07087891 -16.64699219 17.07925781 -15.72460938 17.08789062 C-10.70690587 17.10627049 -5.93455132 16.94716891 -1 16 C-0.67 15.67 -0.34 15.34 0 15 C-0.26622705 13.06985387 -0.53353299 11.13984458 -0.80859375 9.2109375 C-1.08746861 5.98964835 -0.59431902 3.16970145 0 0 Z " fill="#2DB8EA" transform="translate(207,135)"/>
<path d="M0 0 C3.63 0 7.26 0 11 0 C11 4.62 11 9.24 11 14 C9.68 14.33 8.36 14.66 7 15 C4.73038072 16.09798258 4.73038072 16.09798258 3 18 C2.19053578 21.10197397 2.19053578 21.10197397 2 24 C1.01 23.67 0.02 23.34 -1 23 C-0.67 15.41 -0.34 7.82 0 0 Z " fill="#49535D" transform="translate(81,195)"/>
<path d="M0 0 C-0.99 1.98 -1.98 3.96 -3 6 C-5.31 6 -7.62 6 -10 6 C-10.33 6.66 -10.66 7.32 -11 8 C-12.2065625 8.6496875 -12.2065625 8.6496875 -13.4375 9.3125 C-16.41434947 11.27286429 -17.00305041 12.64662411 -18 16 C-19.65 16 -21.3 16 -23 16 C-23.226875 16.7425 -23.45375 17.485 -23.6875 18.25 C-25.26875885 21.56311379 -27.06839761 22.83619823 -30 25 C-31.35147138 26.31494512 -32.69112542 27.64264858 -34 29 C-34.4944472 25.43477544 -34.13485926 24.19007723 -32.015625 21.203125 C-31.10989044 20.20387901 -30.18683298 19.22015031 -29.25 18.25 C-28.75846436 17.72921875 -28.26692871 17.2084375 -27.76049805 16.671875 C-8.75989473 -2.91996491 -8.75989473 -2.91996491 0 0 Z " fill="#208C91" transform="translate(113,16)"/>
<path d="M0 0 C6.18137612 0.82786287 12.14582973 2.92405309 18 5 C18 5.99 18 6.98 18 8 C6.29096066 8.52168987 -3.77395408 7.38443376 -15 4 C-15 3.67 -15 3.34 -15 3 C-12.03 3 -9.06 3 -6 3 C-5.67 2.34 -5.34 1.68 -5 1 C-3.68 1 -2.36 1 -1 1 C-0.67 0.67 -0.34 0.34 0 0 Z " fill="#11226E" transform="translate(132,160)"/>
<path d="M0 0 C0.99 0.33 1.98 0.66 3 1 C3 1.66 3 2.32 3 3 C3.78375 3.268125 4.5675 3.53625 5.375 3.8125 C8 5 8 5 10 8 C11.9519572 8.9049261 11.9519572 8.9049261 14 9 C14.66 8.34 15.32 7.68 16 7 C18.5 8.375 18.5 8.375 21 10 C21 10.66 21 11.32 21 12 C22.423125 12.2165625 22.423125 12.2165625 23.875 12.4375 C27 13 27 13 29 14 C29 14.99 29 15.98 29 17 C30.65 17.33 32.3 17.66 34 18 C34 18.99 34 19.98 34 21 C32.68 21.33 31.36 21.66 30 22 C30 21.01 30 20.02 30 19 C28.7625 18.87625 27.525 18.7525 26.25 18.625 C23.1237803 18.24253695 20.71120763 17.69450477 18 16 C18 15.34 18 14.68 18 14 C17.45472656 13.88785156 16.90945312 13.77570313 16.34765625 13.66015625 C9.1435574 11.77600732 4.62664111 7.76416044 0 2 C0 1.34 0 0.68 0 0 Z " fill="#1856A8" transform="translate(120,146)"/>
<path d="M0 0 C-0.90621094 0.35191406 -1.81242187 0.70382813 -2.74609375 1.06640625 C-9.69056776 3.8809391 -15.50256418 6.62076783 -21.23046875 11.58203125 C-23 13 -23 13 -26 14 C-26.33 14.99 -26.66 15.98 -27 17 C-28.66666667 18.66666667 -30.33333333 20.33333333 -32 22 C-32.556875 22.928125 -33.11375 23.85625 -33.6875 24.8125 C-34.120625 25.534375 -34.55375 26.25625 -35 27 C-35.66 27 -36.32 27 -37 27 C-37.3690205 17.58997722 -37.3690205 17.58997722 -35 13 C-33.68 14.32 -32.36 15.64 -31 17 C-30.236875 16.030625 -29.47375 15.06125 -28.6875 14.0625 C-26.73251185 11.57913668 -26.14349841 11.0478328 -23 10 C-20.56677656 7.78797869 -18.83318214 5.74977321 -17 3 C-15.00577205 2.63371323 -13.00546689 2.29868656 -11 2 C-10.67 1.34 -10.34 0.68 -10 0 C-5.7724002 -1.87893324 -3.98117314 -2.31443471 0 0 Z " fill="#097C85" transform="translate(106,46)"/>
<path d="M0 0 C5.36521487 2.5832516 10.39870147 5.41414104 15.41015625 8.6328125 C22.14920078 12.19037748 28.51465073 12.25691667 35.9375 12.125 C36.90751953 12.11597656 37.87753906 12.10695312 38.87695312 12.09765625 C41.25156407 12.07426107 43.62564776 12.04148176 46 12 C44 14 44 14 41.84521484 14.22705078 C40.97590332 14.21657715 40.1065918 14.20610352 39.2109375 14.1953125 C38.26992187 14.18886719 37.32890625 14.18242187 36.359375 14.17578125 C35.37453125 14.15902344 34.3896875 14.14226562 33.375 14.125 C32.38242188 14.11597656 31.38984375 14.10695312 30.3671875 14.09765625 C27.91121866 14.07404116 25.45572832 14.04110799 23 14 C23 15.65 23 17.3 23 19 C21.68 19 20.36 19 19 19 C18.67 16.69 18.34 14.38 18 12 C14.26513121 11.4254048 10.78706732 11 7 11 C6.67 11.99 6.34 12.98 6 14 C6 12.35 6 10.7 6 9 C5.01 8.67 4.02 8.34 3 8 C3.33 6.68 3.66 5.36 4 4 C1.525 3.01 1.525 3.01 -1 2 C-0.67 1.34 -0.34 0.68 0 0 Z " fill="#1E6FB2" transform="translate(110,117)"/>
<path d="M0 0 C2 2 2 2 2 6 C1.67 6.66 1.34 7.32 1 8 C1.63270867 9.34977849 2.30062468 10.68352881 3 12 C3 12.66 3 13.32 3 14 C2.34 14 1.68 14 1 14 C0.67 14.66 0.34 15.32 0 16 C-1.9375 16.5625 -1.9375 16.5625 -4 17 C-4.66 17.33 -5.32 17.66 -6 18 C-6.33 15.36 -6.66 12.72 -7 10 C-7.33 11.65 -7.66 13.3 -8 15 C-8.33 15 -8.66 15 -9 15 C-9 12.36 -9 9.72 -9 7 C-8.34 7 -7.68 7 -7 7 C-6.34 5.02 -5.68 3.04 -5 1 C-3.35 1.33 -1.7 1.66 0 2 C0 1.34 0 0.68 0 0 Z " fill="#3D4854" transform="translate(89,211)"/>
<path d="M0 0 C0.99 0.33 1.98 0.66 3 1 C4.20214714 5.00715713 4.0918452 7.42783915 2.3125 11.125 C0.27112117 14.79386986 -1.76095815 18.04041064 -5.75 19.75 C-9.17711381 20.13079042 -12.55256262 20.05745729 -16 20 C-16 19.34 -16 18.68 -16 18 C-13.5 16.375 -13.5 16.375 -11 15 C-11 15.66 -11 16.32 -11 17 C-8.03824877 16.38722388 -6.61941217 15.74627478 -4 14 C-4 12.68 -4 11.36 -4 10 C-3.39351421 8.31050386 -2.72159424 6.64363134 -2 5 C-1.62875 4.071875 -1.2575 3.14375 -0.875 2.1875 C-0.58625 1.465625 -0.2975 0.74375 0 0 Z " fill="#2FEEEB" transform="translate(202,41)"/>
<path d="M0 0 C0.33 0.66 0.66 1.32 1 2 C-1.31 3.32 -3.62 4.64 -6 6 C-4.68 6.66 -3.36 7.32 -2 8 C-6.97063121 8.91297308 -11.02936879 8.91297308 -16 8 C-16.33 6.35 -16.66 4.7 -17 3 C-11.17521449 -0.03901852 -6.51791392 -0.3540919 0 0 Z " fill="#4B5560" transform="translate(139,208)"/>
<path d="M0 0 C3.465 1.485 3.465 1.485 7 3 C6.67 4.32 6.34 5.64 6 7 C6.66 7.33 7.32 7.66 8 8 C8 9.65 8 11.3 8 13 C8.66 13 9.32 13 10 13 C10.33 13.99 10.66 14.98 11 16 C10.34 16.66 9.68 17.32 9 18 C8.83318891 21.08347826 8.83318891 21.08347826 9 24 C5.4256292 21.61708613 4.64948781 19.71226342 2.8125 15.875 C2.28269531 14.77929688 1.75289063 13.68359375 1.20703125 12.5546875 C0.60955078 11.29011719 0.60955078 11.29011719 0 10 C0.66 10 1.32 10 2 10 C2 9.34 2 8.68 2 8 C2.66 8 3.32 8 4 8 C3.67 6.68 3.34 5.36 3 4 C2.01 4 1.02 4 0 4 C-0.33 3.01 -0.66 2.02 -1 1 C-0.67 0.67 -0.34 0.34 0 0 Z " fill="#1259A8" transform="translate(108,118)"/>
<path d="M0 0 C3.63 0 7.26 0 11 0 C11 0.99 11 1.98 11 3 C9.49609375 4.21875 9.49609375 4.21875 7.4375 5.5 C2.06977092 9.26984894 -0.80081463 14.38143069 -4 20 C-5.09658936 16.71023192 -4.79953138 15.28696233 -4 12 C-3.01 11.67 -2.02 11.34 -1 11 C-0.67 9.35 -0.34 7.7 0 6 C1.32 5.67 2.64 5.34 4 5 C4 4.34 4 3.68 4 3 C3.34 3 2.68 3 2 3 C2 2.34 2 1.68 2 1 C1.34 0.67 0.68 0.34 0 0 Z " fill="#121C70" transform="translate(110,52)"/>
<path d="M0 0 C0.99 0.66 1.98 1.32 3 2 C3 2.66 3 3.32 3 4 C-4.52492872 5.42363516 -12.45985725 6.83408878 -20 5 C-15.05153152 0.05153152 -6.67157648 -0.58522601 0 0 Z " fill="#25B0B5" transform="translate(133,10)"/>
<path d="M0 0 C0 1.32 0 2.64 0 4 C1.98 4 3.96 4 6 4 C6 4.33 6 4.66 6 5 C-0.56492112 5.78441153 -6.46837378 6.10914408 -13 5 C-13 4.67 -13 4.34 -13 4 C-11.02 4 -9.04 4 -7 4 C-9.0072908 0.9890638 -9.83884224 0.36983503 -13 -1 C-7.48845808 -3.09438593 -5.01697937 -3.18149912 0 0 Z " fill="#4B5763" transform="translate(144,237)"/>
<path d="M0 0 C0.53012738 1.28788008 1.0488329 2.58046678 1.5625 3.875 C1.99755859 4.95394531 1.99755859 4.95394531 2.44140625 6.0546875 C3 8 3 8 2 10 C-0.9737344 11.09036928 -1.88407501 11.03864166 -5 10 C-5.33 10.66 -5.66 11.32 -6 12 C-6 8.37 -6 4.74 -6 1 C-4 0 -4 0 0 0 Z " fill="#1DBBEB" transform="translate(204,124)"/>
<path d="M0 0 C1.70884005 1.62339805 3.37446717 3.29319053 5 5 C5 5.66 5 6.32 5 7 C4.34 7 3.68 7 3 7 C2.67 6.34 2.34 5.68 2 5 C1.76571687 9.7897321 1.76571687 9.7897321 4 14 C4.4140625 16.69921875 4.4140625 16.69921875 4.625 19.6875 C4.69976562 20.68136719 4.77453125 21.67523438 4.8515625 22.69921875 C4.90054688 23.45847656 4.94953125 24.21773437 5 25 C3 24 3 24 2 21.375 C0.0960913 14.94930813 -1.66402163 8.56856029 -3 2 C-2.01 1.34 -1.02 0.68 0 0 Z " fill="#16439B" transform="translate(102,103)"/>
<path d="M0 0 C5.61 0.33 11.22 0.66 17 1 C17 1.33 17 1.66 17 2 C15.329375 2.061875 15.329375 2.061875 13.625 2.125 C9.71432425 2.57490075 7.2213561 3.92522766 3.9375 6.0625 C-0.40185033 8.87268205 -2.89563305 9.66578699 -8 9 C-5 7 -5 7 -2 6 C-1.34 4.02 -0.68 2.04 0 0 Z " fill="#29A4DD" transform="translate(179,152)"/>
<path d="M0 0 C1.98 0.99 1.98 0.99 4 2 C4 3.32 4 4.64 4 6 C3.34 6 2.68 6 2 6 C2.66 11.94 3.32 17.88 4 24 C3.34 24.33 2.68 24.66 2 25 C1.34 24.67 0.68 24.34 0 24 C0 16.08 0 8.16 0 0 Z " fill="#10216C" transform="translate(64,77)"/>
<path d="M0 0 C10.07410984 -0.40118137 19.88768458 0.44384229 29 5 C29 5.33 29 5.66 29 6 C25.14605202 6.0896267 21.75700078 5.82470749 18 5 C15.66822025 4.65596692 13.33512959 4.32050798 11 4 C11 3.34 11 2.68 11 2 C10.113125 2.4125 9.22625 2.825 8.3125 3.25 C6.6728125 3.62125 6.6728125 3.62125 5 4 C2.125 2.125 2.125 2.125 0 0 Z " fill="#29D2CF" transform="translate(150,11)"/>
<path d="M0 0 C26.9576474 -0.61916858 26.9576474 -0.61916858 39 3 C39 3.33 39 3.66 39 4 C37.77796875 3.83371094 36.5559375 3.66742188 35.296875 3.49609375 C28.1749419 2.7027539 21.03949962 2.98987893 13.88671875 3.12695312 C12.27990234 3.14338867 12.27990234 3.14338867 10.640625 3.16015625 C9.67672852 3.17699463 8.71283203 3.19383301 7.71972656 3.21118164 C4.79580363 2.98414454 2.65062954 2.22195348 0 1 C0 0.67 0 0.34 0 0 Z " fill="#4BBCBB" transform="translate(130,9)"/>
<path d="M0 0 C1.42942899 2.69906254 2.46966627 5.28245025 3.2890625 8.22265625 C3.50820312 9.00833984 3.72734375 9.79402344 3.953125 10.60351562 C4.17484375 11.41498047 4.3965625 12.22644531 4.625 13.0625 C4.85445312 13.87783203 5.08390625 14.69316406 5.3203125 15.53320312 C7 21.61707124 7 21.61707124 7 25 C3.44219804 24.39009109 0.3171411 23.4216319 -3 22 C-3 21.67 -3 21.34 -3 21 C-0.69 21 1.62 21 4 21 C2.93688076 14.90107334 2.93688076 14.90107334 0.3125 9.375 C-1.54452618 6.01466691 -0.78810321 3.65393304 0 0 Z " fill="#44B4D1" transform="translate(207,135)"/>
<path d="M0 0 C0.99 0.33 1.98 0.66 3 1 C1.40051645 8.63262326 -0.80643328 14.13412691 -6 20 C-6.99 19.01 -7.98 18.02 -9 17 C-7.66666667 15.66666667 -6.33333333 14.33333333 -5 13 C-4.07244575 10.81322058 -3.20426152 8.6009125 -2.375 6.375 C-1.92898437 5.18648437 -1.48296875 3.99796875 -1.0234375 2.7734375 C-0.68570313 1.85820312 -0.34796875 0.94296875 0 0 Z " fill="#505962" transform="translate(232,212)"/>
<path d="M0 0 C9.24 0 18.48 0 28 0 C26 2 26 2 23.84521484 2.22705078 C22.97590332 2.21657715 22.1065918 2.20610352 21.2109375 2.1953125 C20.26992187 2.18886719 19.32890625 2.18242187 18.359375 2.17578125 C17.37453125 2.15902344 16.3896875 2.14226562 15.375 2.125 C14.38242188 2.11597656 13.38984375 2.10695312 12.3671875 2.09765625 C9.91121866 2.07404116 7.45572832 2.04110799 5 2 C5 3.65 5 5.3 5 7 C3.68 7 2.36 7 1 7 C0.67 4.69 0.34 2.38 0 0 Z " fill="#2882BD" transform="translate(128,129)"/>
<path d="M0 0 C2.99115009 1.70749863 5.45393267 3.53616584 7.625 6.25 C7.625 6.91 7.625 7.57 7.625 8.25 C6.635 8.25 5.645 8.25 4.625 8.25 C4.625 7.59 4.625 6.93 4.625 6.25 C3.965 6.25 3.305 6.25 2.625 6.25 C2.625 5.59 2.625 4.93 2.625 4.25 C1.635 4.25 0.645 4.25 -0.375 4.25 C-0.375 3.59 -0.375 2.93 -0.375 2.25 C-1.5815625 2.0334375 -1.5815625 2.0334375 -2.8125 1.8125 C-5.375 1.25 -5.375 1.25 -6.375 0.25 C-10.84980899 0.07451729 -14.98333973 0.39309068 -19.375 1.25 C-14.48014853 -3.64485147 -5.87601349 -2.81122597 0 0 Z " fill="#3AAFD5" transform="translate(195.375,115.75)"/>
<path d="M0 0 C0.33 0 0.66 0 1 0 C1 3.3 1 6.6 1 10 C1.66 10.33 2.32 10.66 3 11 C1.68 13.64 0.36 16.28 -1 19 C-3.04347826 14.91304348 -3.04347826 14.91304348 -2 11 C-2.66 10.34 -3.32 9.68 -4 9 C-3.67 8.01 -3.34 7.02 -3 6 C-2.34 6 -1.68 6 -1 6 C-1.33 5.01 -1.66 4.02 -2 3 C-1.34 2.01 -0.68 1.02 0 0 Z " fill="#132989" transform="translate(100,86)"/>
<path d="M0 0 C3.86704518 1.28901506 4.5977298 3.08875686 6.71875 6.40625 C8.00689646 8.30299104 8.00689646 8.30299104 11 9 C12.03789581 10.64333504 13.03567924 12.31243867 14 14 C16.06467856 16.40879165 16.88994659 16.96331553 20 18 C20 18.99 20 19.98 20 21 C16.38318166 20.44053572 14.98279247 19.23677077 12.6875 16.4375 C11.7903125 15.36048828 11.7903125 15.36048828 10.875 14.26171875 C10.25625 13.51535156 9.6375 12.76898438 9 12 C7.16596768 9.94780658 5.32492194 7.90220187 3.48046875 5.859375 C1.99214246 3.99013142 0.98437509 2.17042702 0 0 Z M21 15 C21.33 15.99 21.66 16.98 22 18 C21.34 18 20.68 18 20 18 C20.33 17.01 20.66 16.02 21 15 Z " fill="#1A2167" transform="translate(76,131)"/>
<path d="M0 0 C-0.99 1.98 -1.98 3.96 -3 6 C-5.31 6 -7.62 6 -10 6 C-10.33 6.66 -10.66 7.32 -11 8 C-11.66 8 -12.32 8 -13 8 C-12.36338468 5.13523105 -11.63204884 3.43956744 -9.19140625 1.7421875 C-3.5906985 -1.1968995 -3.5906985 -1.1968995 0 0 Z " fill="#21999F" transform="translate(113,16)"/>
<path d="M0 0 C1.65 0.33 3.3 0.66 5 1 C5 1.66 5 2.32 5 3 C4.34 3 3.68 3 3 3 C3 3.66 3 4.32 3 5 C6.3 4.67 9.6 4.34 13 4 C12.67 4.66 12.34 5.32 12 6 C8.79226388 7.06924537 6.37015182 7.16684956 3 7.1875 C1.948125 7.20167969 0.89625 7.21585938 -0.1875 7.23046875 C-3 7 -3 7 -6 5 C-3.69 5 -1.38 5 1 5 C0.34 4.67 -0.32 4.34 -1 4 C-0.67 2.68 -0.34 1.36 0 0 Z " fill="#46E0E0" transform="translate(183,56)"/>
<path d="M0 0 C0.928125 0.20625 1.85625 0.4125 2.8125 0.625 C3.1425 1.615 3.4725 2.605 3.8125 3.625 C-0.08778225 6.22518816 -3.66184569 5.77585514 -8.1875 5.625 C-6.37307853 1.43787353 -4.89236161 -0.57557195 0 0 Z " fill="#041652" transform="translate(92.1875,53.375)"/>
<path d="M0 0 C1.99267584 1.86192283 2.92846769 3.38992958 3.24755859 6.11132812 C3.29513603 8.66311554 3.26098224 11.19884745 3.1875 13.75 C3.17396484 14.63816406 3.16042969 15.52632812 3.14648438 16.44140625 C3.11121309 18.62822578 3.06192752 20.81379966 3 23 C2.01 22.34 1.02 21.68 0 21 C-0.19599718 18.29761462 -0.23455976 15.81635933 -0.125 13.125 C0.08371955 7.00203231 0.08371955 7.00203231 -1 1 C-0.67 0.67 -0.34 0.34 0 0 Z " fill="#5B646B" transform="translate(104,218)"/>
<path d="M0 0 C0 3.61029169 -0.96092582 6.55806676 -2 10 C-2.33 9.01 -2.66 8.02 -3 7 C-3.66 7 -4.32 7 -5 7 C-4.938125 7.928125 -4.87625 8.85625 -4.8125 9.8125 C-5 13 -5 13 -6.5 14.875 C-7.2425 15.431875 -7.2425 15.431875 -8 16 C-8.70703125 13.828125 -8.70703125 13.828125 -9 11 C-7.63671875 8.359375 -7.63671875 8.359375 -5.6875 5.75 C-5.05199219 4.87859375 -4.41648437 4.0071875 -3.76171875 3.109375 C-2 1 -2 1 0 0 Z " fill="#021E5C" transform="translate(79,62)"/>
<path d="M0 0 C0.99 0.33 1.98 0.66 3 1 C3.33 2.98 3.66 4.96 4 7 C3.01 7.33 2.02 7.66 1 8 C0.690625 8.66 0.38125 9.32 0.0625 10 C-1 12 -1 12 -3.125 12.75 C-4.053125 12.87375 -4.053125 12.87375 -5 13 C-4.70351562 12.43796875 -4.40703125 11.8759375 -4.1015625 11.296875 C-2.99056497 8.98032695 -2.16535294 6.69290908 -1.375 4.25 C-1.11460937 3.45078125 -0.85421875 2.6515625 -0.5859375 1.828125 C-0.39257812 1.22484375 -0.19921875 0.6215625 0 0 Z " fill="#33F3F0" transform="translate(202,41)"/>
<path d="M0 0 C0.66 0.33 1.32 0.66 2 1 C0.68 1.99 -0.64 2.98 -2 4 C-1.34 2.68 -0.68 1.36 0 0 Z M-5 1 C-4.01 1.99 -3.02 2.98 -2 4 C-2.268125 4.639375 -2.53625 5.27875 -2.8125 5.9375 C-4.35364142 9.91202261 -5.67609312 13.94884495 -7 18 C-7.33 18 -7.66 18 -8 18 C-8 15.03 -8 12.06 -8 9 C-7.34 9 -6.68 9 -6 9 C-6.020625 8.05125 -6.04125 7.1025 -6.0625 6.125 C-6 3 -6 3 -5 1 Z " fill="#061A66" transform="translate(74,74)"/>
<path d="M0 0 C-1.46373047 0.61488281 -1.46373047 0.61488281 -2.95703125 1.2421875 C-4.24225575 1.78629714 -5.52740825 2.33057689 -6.8125 2.875 C-7.77639648 3.27912109 -7.77639648 3.27912109 -8.75976562 3.69140625 C-11.71490408 4.94695731 -14.31915767 6.21277178 -17 8 C-17.99 7.67 -18.98 7.34 -20 7 C-18.875 5.0625 -18.875 5.0625 -17 3 C-15.01178687 2.60235737 -13.01055661 2.26224651 -11 2 C-10.67 1.34 -10.34 0.68 -10 0 C-5.7724002 -1.87893324 -3.98117314 -2.31443471 0 0 Z " fill="#12839A" transform="translate(106,46)"/>
<path d="M0 0 C0.99 0.33 1.98 0.66 3 1 C7.19308963 2.37228388 9.76994845 3.20858616 14 2 C14.99 2.66 15.98 3.32 17 4 C8.57142857 6.28571429 8.57142857 6.28571429 4 6 C4 5.01 4 4.02 4 3 C1.69 3 -0.62 3 -3 3 C-2.01 2.01 -1.02 1.02 0 0 Z " fill="#277EBD" transform="translate(150,161)"/>
<path d="M0 0 C0.33 0.66 0.66 1.32 1 2 C0.34 2 -0.32 2 -1 2 C-1.67958603 4.39719432 -1.67958603 4.39719432 -2 7 C-1.34 7.66 -0.68 8.32 0 9 C-1.45635371 9.22174933 -2.91522956 9.42698698 -4.375 9.625 C-5.18710938 9.74101563 -5.99921875 9.85703125 -6.8359375 9.9765625 C-7.55007812 9.98429687 -8.26421875 9.99203125 -9 10 C-9.66 9.34 -10.32 8.68 -11 8 C-7.37 5.36 -3.74 2.72 0 0 Z " fill="#2EAADC" transform="translate(175,117)"/>
<path d="M0 0 C1.98 0 3.96 0 6 0 C5.01 0.33 4.02 0.66 3 1 C3 1.66 3 2.32 3 3 C4.65 3.33 6.3 3.66 8 4 C7.67 4.99 7.34 5.98 7 7 C4.6875 7.6875 4.6875 7.6875 2 8 C0.125 6.875 0.125 6.875 -1 5 C-0.6875 2.3125 -0.6875 2.3125 0 0 Z " fill="#3F4B57" transform="translate(234,207)"/>
<path d="M0 0 C3.63 0 7.26 0 11 0 C11 1.98 11 3.96 11 6 C10.01 6.495 10.01 6.495 9 7 C9 5.02 9 3.04 9 1 C7.824375 1.5259375 7.824375 1.5259375 6.625 2.0625 C5.325625 2.5265625 5.325625 2.5265625 4 3 C3.34 2.67 2.68 2.34 2 2 C2 3.98 2 5.96 2 8 C1.34 8 0.68 8 0 8 C0 5.36 0 2.72 0 0 Z " fill="#535B61" transform="translate(186,200)"/>
<path d="M0 0 C3.36152463 3.03235456 5.21728846 6.70938092 7.40234375 10.625 C9.03490714 13.0518913 10.57185852 14.40571272 13 16 C12.67 17.32 12.34 18.64 12 20 C10.99106869 18.90398831 9.99311775 17.79786082 9 16.6875 C8.443125 16.07261719 7.88625 15.45773438 7.3125 14.82421875 C6 13 6 13 6 10 C5.01 9.67 4.02 9.34 3 9 C1.11420063 5.78715662 0 3.75366417 0 0 Z " fill="#133E97" transform="translate(107,128)"/>
<path d="M0 0 C2.64 0 5.28 0 8 0 C7.01 0.33 6.02 0.66 5 1 C5 1.66 5 2.32 5 3 C3.35 3 1.7 3 0 3 C0 3.66 0 4.32 0 5 C0.66 5 1.32 5 2 5 C1.67 6.65 1.34 8.3 1 10 C0.01 10.33 -0.98 10.66 -2 11 C-3.21346851 7.35959446 -3.21346851 5.64040554 -2 2 C-1.34 2 -0.68 2 0 2 C0 1.34 0 0.68 0 0 Z " fill="#1DABE7" transform="translate(176,117)"/>
<path d="M0 0 C3.37492629 -0.05845196 6.74972087 -0.09374742 10.125 -0.125 C11.07632813 -0.14175781 12.02765625 -0.15851562 13.0078125 -0.17578125 C18.08583255 -0.21104528 22.24487525 -0.03333617 27 2 C27 2.66 27 3.32 27 4 C24.36 4 21.72 4 19 4 C19 3.34 19 2.68 19 2 C12.73 1.67 6.46 1.34 0 1 C0 0.67 0 0.34 0 0 Z " fill="#0B4669" transform="translate(118,43)"/>
<path d="M0 0 C1.99954746 -0.04254356 4.00041636 -0.04080783 6 0 C6.33 0.33 6.66 0.66 7 1 C10.34367943 0.77708804 13.66399471 0.41338366 16.99609375 0.05859375 C17.98738281 0.03925781 18.97867188 0.01992187 20 0 C20.66 0.66 21.32 1.32 22 2 C18.54268736 3.15243755 15.76740787 3.16824837 12.125 3.1875 C10.91070312 3.20167969 9.69640625 3.21585938 8.4453125 3.23046875 C5.15655579 3.01047255 2.94634052 2.41715618 0 1 C0 0.67 0 0.34 0 0 Z " fill="#4E5760" transform="translate(47,241)"/>
<path d="M0 0 C3.63 0 7.26 0 11 0 C10.67 1.32 10.34 2.64 10 4 C9.67 3.67 9.34 3.34 9 3 C6.67182036 2.63239269 4.3381615 2.29758419 2 2 C2.33 5.96 2.66 9.92 3 14 C2.34 14 1.68 14 1 14 C0.67 9.38 0.34 4.76 0 0 Z " fill="#545A62" transform="translate(81,195)"/>
<path d="M0 0 C1.98 0.99 3.96 1.98 6 3 C6 3.66 6 4.32 6 5 C7.423125 5.2165625 7.423125 5.2165625 8.875 5.4375 C12 6 12 6 14 7 C14 7.66 14 8.32 14 9 C11.03 8.67 8.06 8.34 5 8 C5 7.34 5 6.68 5 6 C4.01 6 3.02 6 2 6 C0 3 0 3 0 0 Z " fill="#126FB6" transform="translate(135,153)"/>
<path d="M0 0 C1.98 0 3.96 0 6 0 C6.33 0.99 6.66 1.98 7 3 C8.99571323 3.67939174 10.99594773 4.34561559 13 5 C13.99 6.485 13.99 6.485 15 8 C14.67 8.99 14.34 9.98 14 11 C13.52949219 10.57847656 13.05898437 10.15695313 12.57421875 9.72265625 C11.64029297 8.90087891 11.64029297 8.90087891 10.6875 8.0625 C9.76517578 7.24458984 9.76517578 7.24458984 8.82421875 6.41015625 C6.94758042 4.79918441 6.94758042 4.79918441 4 4 C3.67 3.34 3.34 2.68 3 2 C2.01 1.34 1.02 0.68 0 0 Z " fill="#3BD5D3" transform="translate(158,48)"/>
<path d="M0 0 C2.64 0 5.28 0 8 0 C7.44894091 3.9492568 6.61064629 7.34920174 5 11 C3.57055055 8.64561267 2.91338739 7.51967567 3.375 4.75 C3.58125 4.1725 3.7875 3.595 4 3 C2.68 2.67 1.36 2.34 0 2 C0 1.34 0 0.68 0 0 Z " fill="#525C64" transform="translate(237,208)"/>
<path d="M0 0 C4.08087851 3.63970245 6.26680571 6.80041714 8 12 C8.1875 15.4375 8.1875 15.4375 8 18 C7.67 18 7.34 18 7 18 C6.731875 17.113125 6.46375 16.22625 6.1875 15.3125 C5.14640374 12.05045772 5.14640374 12.05045772 3.5 9.5625 C1.69836617 6.48470888 0.8775857 3.4428362 0 0 Z " fill="#47E5DE" transform="translate(198,29)"/>
<path d="M0 0 C2 0 2 0 4.625 2.5 C5.40875 3.325 6.1925 4.15 7 5 C6 7 6 7 4.1875 7.875 C2 8 2 8 -0.25 6.0625 C-0.8275 5.381875 -1.405 4.70125 -2 4 C-1.34 2.68 -0.68 1.36 0 0 Z " fill="#444C58" transform="translate(207,247)"/>
<path d="M0 0 C1.4540625 0.0309375 1.4540625 0.0309375 2.9375 0.0625 C0.4625 4.5175 0.4625 4.5175 -2.0625 9.0625 C-3.0525 8.7325 -4.0425 8.4025 -5.0625 8.0625 C-4.7325 7.4025 -4.4025 6.7425 -4.0625 6.0625 C-4.0625 5.216875 -4.0625 4.37125 -4.0625 3.5 C-4.0625 -0.15711845 -3.70795205 0.07567249 0 0 Z " fill="#555D69" transform="translate(207.0625,207.9375)"/>
<path d="M0 0 C0.99 0.66 1.98 1.32 3 2 C-2.75 7 -2.75 7 -5 7 C-5.33 7.99 -5.66 8.98 -6 10 C-8.0625 11.1875 -8.0625 11.1875 -10 12 C-8.82191948 8.6470016 -7.80593388 6.2447471 -5 4 C-4.01 3.67 -3.02 3.34 -2 3 C-1.34 2.01 -0.68 1.02 0 0 Z " fill="#117591" transform="translate(85,53)"/>
<path d="M0 0 C0.66 0 1.32 0 2 0 C1.67566492 5.35152885 -1.49704824 8.28280043 -5 12 C-5.66 11.67 -6.32 11.34 -7 11 C-5.68822142 8.0737247 -4.24710766 6.24710766 -2 4 C-0.82425289 1.90010348 -0.82425289 1.90010348 0 0 Z " fill="#55E5E1" transform="translate(203,48)"/>
<path d="M0 0 C2.475 0.99 2.475 0.99 5 2 C5 2.33 5 2.66 5 3 C6.65 3.33 8.3 3.66 10 4 C10 4.99 10 5.98 10 7 C8.68 7.33 7.36 7.66 6 8 C6 7.01 6 6.02 6 5 C4.68 5 3.36 5 2 5 C2 4.34 2 3.68 2 3 C0.68 2.67 -0.64 2.34 -2 2 C-1.34 1.34 -0.68 0.68 0 0 Z " fill="#1F64A8" transform="translate(144,160)"/>
<path d="M0 0 C0.33 0 0.66 0 1 0 C1.33 1.98 1.66 3.96 2 6 C2.66 6 3.32 6 4 6 C2.25 11.75 2.25 11.75 0 14 C-1.54799337 9.35601989 -1.49594333 4.67482292 0 0 Z " fill="#207B8D" transform="translate(66,67)"/>
<path d="M0 0 C0.66 1.65 1.32 3.3 2 5 C0.02 5 -1.96 5 -4 5 C-4 4.34 -4 3.68 -4 3 C-4.99 3 -5.98 3 -7 3 C-7 2.34 -7 1.68 -7 1 C-4.53721199 -0.231394 -2.7204945 -0.07159196 0 0 Z " fill="#36F0E6" transform="translate(197,27)"/>
<path d="M0 0 C1.0725 -0.020625 2.145 -0.04125 3.25 -0.0625 C6 0 6 0 8 2 C6.98679688 2.09087891 6.98679688 2.09087891 5.953125 2.18359375 C5.06109375 2.26738281 4.1690625 2.35117188 3.25 2.4375 C2.36828125 2.51871094 1.4865625 2.59992188 0.578125 2.68359375 C-1.69350452 2.96238465 -3.79851823 3.38790577 -6 4 C-6.66 2.68 -7.32 1.36 -8 0 C-5.13118749 -1.43440626 -3.12952645 -0.54164881 0 0 Z " fill="#424954" transform="translate(131,216)"/>
<path d="M0 0 C2.475 0.99 2.475 0.99 5 2 C5 4.64 5 7.28 5 10 C4.01 9.67 3.02 9.34 2 9 C1.26953125 6.93359375 1.26953125 6.93359375 0.8125 4.4375 C0.65394531 3.61121094 0.49539062 2.78492187 0.33203125 1.93359375 C0.16767578 0.97646484 0.16767578 0.97646484 0 0 Z " fill="#15206F" transform="translate(68,113)"/>
<path d="M0 0 C0.66 0 1.32 0 2 0 C2.33 2.31 2.66 4.62 3 7 C-0.55780196 6.39009109 -3.6828589 5.4216319 -7 4 C-7 3.67 -7 3.34 -7 3 C-4.69 3 -2.38 3 0 3 C0 2.01 0 1.02 0 0 Z " fill="#54B9D3" transform="translate(211,153)"/>
<path d="M0 0 C4.67239145 2.13206212 8.59287819 4.02502456 12 8 C10.02 7.34 8.04 6.68 6 6 C6 6.99 6 7.98 6 9 C5.01 8.67 4.02 8.34 3 8 C3.33 6.68 3.66 5.36 4 4 C1.525 3.01 1.525 3.01 -1 2 C-0.67 1.34 -0.34 0.68 0 0 Z " fill="#1A69A8" transform="translate(110,117)"/>
<path d="M0 0 C0 0.99 0 1.98 0 3 C0.66 3.33 1.32 3.66 2 4 C-3.94 3.34 -9.88 2.68 -16 2 C-16 1.67 -16 1.34 -16 1 C-13.89594609 0.83191581 -11.79175242 0.66558052 -9.6875 0.5 C-8.51574219 0.4071875 -7.34398437 0.314375 -6.13671875 0.21875 C-4.094806 0.07635011 -2.0468721 0 0 0 Z " fill="#26A7B8" transform="translate(141,40)"/>
<path d="M0 0 C-0.66 0 -1.32 0 -2 0 C-2.33 0.66 -2.66 1.32 -3 2 C-6.43959315 4.15974453 -8.28170605 5.0665087 -12.375 4.6875 C-13.24125 4.460625 -14.1075 4.23375 -15 4 C-12.69846709 1.69846709 -11.15124095 1.2422972 -8.0625 0.3125 C-7.18722656 0.04050781 -6.31195313 -0.23148438 -5.41015625 -0.51171875 C-3 -1 -3 -1 0 0 Z " fill="#35A7A9" transform="translate(128,11)"/>
<path d="M0 0 C3.95602172 4.85511756 5.29212746 8.71925967 5 15 C3.33828498 12.50742747 2.0612321 10.20483487 0.8125 7.5 C0.44769531 6.7265625 0.08289063 5.953125 -0.29296875 5.15625 C-1 3 -1 3 0 0 Z " fill="#575C63" transform="translate(213,223)"/>
<path d="M0 0 C4.67105792 1.55701931 8.08705685 4.08447373 12 7 C9.17478049 7 7.50090876 6.66083182 4.875 5.75 C3.81925781 5.40195312 3.81925781 5.40195312 2.7421875 5.046875 C1 4 1 4 0.2578125 1.890625 C0.17273438 1.26671875 0.08765625 0.6428125 0 0 Z " fill="#42E3D6" transform="translate(183,19)"/>
<path d="M0 0 C0.66 0.66 1.32 1.32 2 2 C1.01 2.99 0.02 3.98 -1 5 C-0.67 5.99 -0.34 6.98 0 8 C-0.33 8.66 -0.66 9.32 -1 10 C-1.99 9.67 -2.98 9.34 -4 9 C-4.66666667 7.66666667 -5.33333333 6.33333333 -6 5 C-5.01 5 -4.02 5 -3 5 C-2.87625 4.360625 -2.7525 3.72125 -2.625 3.0625 C-2.41875 2.381875 -2.2125 1.70125 -2 1 C-1.34 0.67 -0.68 0.34 0 0 Z " fill="#4A5560" transform="translate(94,213)"/>
<path d="M0 0 C0.66 1.32 1.32 2.64 2 4 C1 5 1 5 -0.84765625 5.09765625 C-2.8984375 5.06510417 -4.94921875 5.03255208 -7 5 C-7 4.34 -7 3.68 -7 3 C-4.69 2.01 -2.38 1.02 0 0 Z " fill="#3B494F" transform="translate(113,239)"/>
<path d="M0 0 C1.5625 1.8125 1.5625 1.8125 3 4 C2.67 4.99 2.34 5.98 2 7 C1.34 6.67 0.68 6.34 0 6 C-0.66 6.99 -1.32 7.98 -2 9 C-3 4.25 -3 4.25 -3 2 C-2.01 2 -1.02 2 0 2 C0 1.34 0 0.68 0 0 Z " fill="#20B6DD" transform="translate(203,124)"/>
<path d="M0 0 C2.12534659 0.14069196 4.25027529 0.28770921 6.375 0.4375 C8.15003906 0.55931641 8.15003906 0.55931641 9.9609375 0.68359375 C13 1 13 1 15 2 C15 2.66 15 3.32 15 4 C9.76119922 3.44854729 5.02649303 2.57077907 0 1 C0 0.67 0 0.34 0 0 Z " fill="#1A2466" transform="translate(117,163)"/>
<path d="M0 0 C0 0.33 0 0.66 0 1 C-1.134375 1.061875 -2.26875 1.12375 -3.4375 1.1875 C-8.64719648 1.80259833 -12.61845986 4.25139496 -17 7 C-17 6.34 -17 5.68 -17 5 C-11.42720408 -0.08820497 -7.40812837 -0.67075609 0 0 Z " fill="#48A5CB" transform="translate(196,153)"/>
<path d="M0 0 C1.9375 0.8125 1.9375 0.8125 4 2 C4.33 2.99 4.66 3.98 5 5 C2.69 5 0.38 5 -2 5 C-2 4.34 -2 3.68 -2 3 C-2.66 2.67 -3.32 2.34 -4 2 C-2.68 2 -1.36 2 0 2 C0 1.34 0 0.68 0 0 Z " fill="#26E5E2" transform="translate(179,56)"/>
<path d="M0 0 C4.3177458 0.50797009 8.03302114 1.19682779 12 3 C12 3.33 12 3.66 12 4 C7.80924525 4.19491883 4.75920564 3.93330576 1 2 C0.67 1.34 0.34 0.68 0 0 Z " fill="#3ED4D2" transform="translate(167,13)"/>
<path d="M0 0 C0 0.99 0 1.98 0 3 C-4.455 3.495 -4.455 3.495 -9 4 C-8.67 3.01 -8.34 2.02 -8 1 C-5.29120665 -0.35439668 -2.99066732 -0.06501451 0 0 Z " fill="#1CABAF" transform="translate(130,12)"/>
<path d="M0 0 C2.97 0.33 5.94 0.66 9 1 C9.33 2.32 9.66 3.64 10 5 C6.08788267 3.84414715 3.1254959 2.64465038 0 0 Z " fill="#19216A" transform="translate(102,156)"/>
<path d="M0 0 C0.33 0.66 0.66 1.32 1 2 C0.34 2 -0.32 2 -1 2 C-1 2.66 -1 3.32 -1 4 C-1.66 4 -2.32 4 -3 4 C-3.33 5.65 -3.66 7.3 -4 9 C-4.12375 8.360625 -4.2475 7.72125 -4.375 7.0625 C-4.684375 6.0415625 -4.684375 6.0415625 -5 5 C-5.66 4.67 -6.32 4.34 -7 4 C-6.34 4 -5.68 4 -5 4 C-5 3.34 -5 2.68 -5 2 C-3.35 1.34 -1.7 0.68 0 0 Z " fill="#2D97CA" transform="translate(161,126)"/>
<path d="M0 0 C-1.98 0.66 -3.96 1.32 -6 2 C-6 2.66 -6 3.32 -6 4 C-7.65 4 -9.3 4 -11 4 C-7.64918101 0.31409911 -4.96535219 -1.77334007 0 0 Z " fill="#032F68" transform="translate(102,49)"/>
<path d="M0 0 C2.625 -0.1875 2.625 -0.1875 5 0 C5.33 1.32 5.66 2.64 6 4 C3.36 3.67 0.72 3.34 -2 3 C-1.34 2.01 -0.68 1.02 0 0 Z " fill="#4B5865" transform="translate(58,233)"/>
<path d="M0 0 C3.465 1.485 3.465 1.485 7 3 C6.67 3.99 6.34 4.98 6 6 C2.34683329 4.75023244 1.21934164 4.32901247 -1 1 C-0.67 0.67 -0.34 0.34 0 0 Z " fill="#0C62B3" transform="translate(108,118)"/>
<path d="M0 0 C0.99 0.33 1.98 0.66 3 1 C2.67 2.65 2.34 4.3 2 6 C1.01 6.33 0.02 6.66 -1 7 C-0.67 4.69 -0.34 2.38 0 0 Z " fill="#0D7A93" transform="translate(70,66)"/>
<path d="M0 0 C0.66 0 1.32 0 2 0 C2 1.65 2 3.3 2 5 C3.32 5 4.64 5 6 5 C6 5.66 6 6.32 6 7 C4.68 7.33 3.36 7.66 2 8 C1.34 5.36 0.68 2.72 0 0 Z " fill="#424A4F" transform="translate(160,232)"/>
<path d="M0 0 C3.0916909 2.52956528 3.90931332 5.22454612 5 9 C2 8 2 8 0.8125 6.1875 C0 4 0 4 0 0 Z " fill="#535A62" transform="translate(208,213)"/>
<path d="M0 0 C1.98 0 3.96 0 6 0 C5.01 0.33 4.02 0.66 3 1 C3 1.99 3 2.98 3 4 C1.68 4.33 0.36 4.66 -1 5 C-0.67 3.35 -0.34 1.7 0 0 Z " fill="#363A41" transform="translate(234,207)"/>
<path d="M0 0 C2.31 0.33 4.62 0.66 7 1 C5 3 5 3 1.375 3.125 C0.26125 3.08375 -0.8525 3.0425 -2 3 C-1.34 2.01 -0.68 1.02 0 0 Z " fill="#404951" transform="translate(102,207)"/>
<path d="M0 0 C0.33 1.32 0.66 2.64 1 4 C-0.98 4.66 -2.96 5.32 -5 6 C-5 5.01 -5 4.02 -5 3 C-2.5 1.3125 -2.5 1.3125 0 0 Z " fill="#35A8D3" transform="translate(170,121)"/>
<path d="M0 0 C1.41377341 2.63904371 2.37240135 5.07120629 3 8 C1.35 7.67 -0.3 7.34 -2 7 C-1.125 2.25 -1.125 2.25 0 0 Z " fill="#14397F" transform="translate(102,97)"/>
<path d="M0 0 C1.98 0.99 1.98 0.99 4 2 C4 3.32 4 4.64 4 6 C3.34 6 2.68 6 2 6 C1.67 6.66 1.34 7.32 1 8 C-0.35439668 5.29120665 -0.06501451 2.99066732 0 0 Z " fill="#105279" transform="translate(64,77)"/>
<path d="M0 0 C2.31 0.33 4.62 0.66 7 1 C7.33 1.99 7.66 2.98 8 4 C5.69 3.67 3.38 3.34 1 3 C0.67 2.01 0.34 1.02 0 0 Z " fill="#30D8D7" transform="translate(160,12)"/>
<path d="M0 0 C2.475 0.495 2.475 0.495 5 1 C5.33 3.31 5.66 5.62 6 8 C5.34 7.67 4.68 7.34 4 7 C4.33 6.34 4.66 5.68 5 5 C4.34 5 3.68 5 3 5 C1.375 2.5 1.375 2.5 0 0 Z " fill="#596268" transform="translate(213,207)"/>
<path d="M0 0 C2.38672669 2.96283313 4.7353371 5.94270509 7 9 C3.34683329 7.75023244 2.21934164 7.32901247 0 4 C0 2.68 0 1.36 0 0 Z " fill="#1E5891" transform="translate(107,110)"/>
<path d="M0 0 C0.66 0 1.32 0 2 0 C2 0.66 2 1.32 2 2 C2.66 2 3.32 2 4 2 C4.33 3.65 4.66 5.3 5 7 C3.68 6.67 2.36 6.34 1 6 C0.67 4.02 0.34 2.04 0 0 Z " fill="#39DEDF" transform="translate(172,54)"/>
<path d="M0 0 C0.66 0.33 1.32 0.66 2 1 C2 2.98 2 4.96 2 7 C0.68 6.34 -0.64 5.68 -2 5 C-1.34 3.35 -0.68 1.7 0 0 Z " fill="#068793" transform="translate(78,45)"/>
<path d="M0 0 C0.99 0 1.98 0 3 0 C2.67 1.65 2.34 3.3 2 5 C0.68 5 -0.64 5 -2 5 C-1.125 1.125 -1.125 1.125 0 0 Z " fill="#0E909A" transform="translate(93,27)"/>
<path d="M0 0 C0.66 0.33 1.32 0.66 2 1 C2 1.99 2 2.98 2 4 C2.66 4.33 3.32 4.66 4 5 C2.35 5.33 0.7 5.66 -1 6 C-1 3 -1 3 0 0 Z " fill="#35414B" transform="translate(130,230)"/>
<path d="M0 0 C2.31 0 4.62 0 7 0 C6.67 0.99 6.34 1.98 6 3 C6.99 3.33 7.98 3.66 9 4 C5.17902761 3.46930939 2.93828597 2.50298434 0 0 Z " fill="#2BB4EA" transform="translate(199,152)"/>
<path d="M0 0 C0.33 0.99 0.66 1.98 1 3 C0.34 3 -0.32 3 -1 3 C-0.67 2.01 -0.34 1.02 0 0 Z M-6 2 C-3.525 2.495 -3.525 2.495 -1 3 C-1 3.99 -1 4.98 -1 6 C-2.9375 5.6875 -2.9375 5.6875 -5 5 C-5.33 4.01 -5.66 3.02 -6 2 Z " fill="#0F1968" transform="translate(97,146)"/>
<path d="M0 0 C1.70884005 1.62339805 3.37446717 3.29319053 5 5 C5 5.66 5 6.32 5 7 C4.34 7 3.68 7 3 7 C2.34 5.68 1.68 4.36 1 3 C0.34 3 -0.32 3 -1 3 C-0.67 2.01 -0.34 1.02 0 0 Z " fill="#104B91" transform="translate(102,103)"/>
<path d="M0 0 C0.66 0.99 1.32 1.98 2 3 C1.125 6.1875 1.125 6.1875 0 9 C-0.33 9 -0.66 9 -1 9 C-1.09765625 2.84765625 -1.09765625 2.84765625 -1 1 C-0.67 0.67 -0.34 0.34 0 0 Z " fill="#148D90" transform="translate(68,65)"/>
<path d="M0 0 C2 1 2 1 2 1 Z " fill="#FFFFFF" transform="translate(36,172)"/>
<path d="" fill="#FFFFFF" transform="translate(0,0)"/>
<path d="" fill="#FFFFFF" transform="translate(0,0)"/>
<path d="" fill="#FFFFFF" transform="translate(0,0)"/>
<path d="" fill="#FFFFFF" transform="translate(0,0)"/>
<path d="" fill="#FFFFFF" transform="translate(0,0)"/>
<path d="" fill="#FFFFFF" transform="translate(0,0)"/>
<path d="" fill="#FFFFFF" transform="translate(0,0)"/>
<path d="" fill="#FFFFFF" transform="translate(0,0)"/>
<path d="" fill="#FFFFFF" transform="translate(0,0)"/>
<path d="" fill="#FFFFFF" transform="translate(0,0)"/>
<path d="" fill="#FFFFFF" transform="translate(0,0)"/>
<path d="" fill="#FFFFFF" transform="translate(0,0)"/>
<path d="" fill="#FFFFFF" transform="translate(0,0)"/>
<path d="" fill="#FFFFFF" transform="translate(0,0)"/>
<path d="" fill="#FFFFFF" transform="translate(0,0)"/>
<path d="" fill="#FFFFFF" transform="translate(0,0)"/>
<path d="" fill="#FFFFFF" transform="translate(0,0)"/>
<path d="" fill="#FFFFFF" transform="translate(0,0)"/>
<path d="" fill="#FFFFFF" transform="translate(0,0)"/>
<path d="" fill="#FFFFFF" transform="translate(0,0)"/>
<path d="" fill="#FFFFFF" transform="translate(0,0)"/>
<path d="" fill="#FFFFFF" transform="translate(0,0)"/>
<path d="" fill="#FFFFFF" transform="translate(0,0)"/>
<path d="" fill="#FFFFFF" transform="translate(0,0)"/>
<path d="" fill="#FFFFFF" transform="translate(0,0)"/>
<path d="" fill="#FFFFFF" transform="translate(0,0)"/>
<path d="" fill="#FFFFFF" transform="translate(0,0)"/>
<path d="" fill="#FFFFFF" transform="translate(0,0)"/>
<path d="" fill="#FFFFFF" transform="translate(0,0)"/>
<path d="" fill="#FFFFFF" transform="translate(0,0)"/>
<path d="" fill="#FFFFFF" transform="translate(0,0)"/>
<path d="" fill="#FFFFFF" transform="translate(0,0)"/>
<path d="" fill="#FFFFFF" transform="translate(0,0)"/>
<path d="" fill="#FFFFFF" transform="translate(0,0)"/>
<path d="" fill="#FFFFFF" transform="translate(0,0)"/>
<path d="" fill="#FFFFFF" transform="translate(0,0)"/>
<path d="" fill="#FFFFFF" transform="translate(0,0)"/>
<path d="" fill="#FFFFFF" transform="translate(0,0)"/>
<path d="" fill="#FFFFFF" transform="translate(0,0)"/>
<path d="" fill="#FFFFFF" transform="translate(0,0)"/>
<path d="" fill="#FFFFFF" transform="translate(0,0)"/>
<path d="" fill="#FFFFFF" transform="translate(0,0)"/>
<path d="" fill="#FFFFFF" transform="translate(0,0)"/>
<path d="" fill="#FFFFFF" transform="translate(0,0)"/>
<path d="" fill="#FFFFFF" transform="translate(0,0)"/>
</svg>
